<svg width="17" height="24" viewBox="0 0 17 24" fill="none" xmlns="http://www.w3.org/2000/svg">
<path d="M2.70113 23.0391C1.84175 23.0391 1.1855 22.8047 0.732377 22.3359C0.287065 21.875 0.0644083 21.1797 0.0644083 20.25V12.1758C0.0644083 11.2539 0.287065 10.5625 0.732377 10.1016C1.1855 9.63281 1.84175 9.39844 2.70113 9.39844H13.4238C14.2832 9.39844 14.9355 9.63281 15.3808 10.1016C15.8339 10.5625 16.0605 11.2539 16.0605 12.1758V20.25C16.0605 21.1797 15.8339 21.875 15.3808 22.3359C14.9355 22.8047 14.2832 23.0391 13.4238 23.0391H2.70113ZM2.75972 21.2695H13.3652C13.623 21.2695 13.8183 21.1914 13.9511 21.0352C14.0918 20.8867 14.1621 20.668 14.1621 20.3789V12.0469C14.1621 11.7578 14.0918 11.5391 13.9511 11.3906C13.8183 11.2422 13.623 11.168 13.3652 11.168H2.75972C2.50972 11.168 2.31441 11.2422 2.17378 11.3906C2.03316 11.5391 1.96285 11.7578 1.96285 12.0469V20.3789C1.96285 20.668 2.03316 20.8867 2.17378 21.0352C2.31441 21.1914 2.50972 21.2695 2.75972 21.2695ZM2.11519 10.3008V6.59766C2.11519 5.12891 2.39644 3.91016 2.95894 2.94141C3.52925 1.97266 4.26753 1.25 5.17378 0.773438C6.08003 0.296875 7.04097 0.0585938 8.0566 0.0585938C9.08003 0.0585938 10.0449 0.296875 10.9511 0.773438C11.8574 1.25 12.5918 1.97266 13.1543 2.94141C13.7246 3.91016 14.0097 5.12891 14.0097 6.59766V10.3008H12.1582V6.35156C12.1582 5.36719 11.9668 4.53906 11.5839 3.86719C11.2089 3.19531 10.7089 2.6875 10.0839 2.34375C9.46675 2 8.79097 1.82812 8.0566 1.82812C7.33003 1.82812 6.65425 2 6.02925 2.34375C5.41206 2.6875 4.91597 3.19531 4.54097 3.86719C4.16597 4.53906 3.97847 5.36719 3.97847 6.35156V10.3008H2.11519Z" fill="black"/>
</svg>
