<svg width="61" height="60" viewBox="0 0 61 60" fill="none" xmlns="http://www.w3.org/2000/svg">
<rect x="0.5" width="60" height="60" rx="30" fill="#F2F2F2"/>
<path fill-rule="evenodd" clip-rule="evenodd" d="M31.0002 37.5C30.2972 37.5 29.7266 36.929 29.7266 36.2255V23.7745C29.7266 23.071 30.2972 22.5 31.0002 22.5C31.7032 22.5 32.2738 23.071 32.2738 23.7745V36.2255C32.2738 36.929 31.7032 37.5 31.0002 37.5Z" fill="#757575"/>
<path fill-rule="evenodd" clip-rule="evenodd" d="M37.2264 31.2736H24.7736C24.0689 31.2736 23.5 30.7026 23.5 29.9991C23.5 29.2956 24.0689 28.7246 24.7736 28.7246H37.2264C37.9294 28.7246 38.5 29.2956 38.5 29.9991C38.5 30.7026 37.9294 31.2736 37.2264 31.2736Z" fill="#757575"/>
</svg>
