<svg width="56" height="56" viewBox="0 0 56 56" fill="none" xmlns="http://www.w3.org/2000/svg">
<circle cx="28" cy="28" r="28" fill="white"/>
<path fill-rule="evenodd" clip-rule="evenodd" d="M28.0002 35.5C27.2972 35.5 26.7266 34.929 26.7266 34.2255V21.7745C26.7266 21.071 27.2972 20.5 28.0002 20.5C28.7032 20.5 29.2738 21.071 29.2738 21.7745V34.2255C29.2738 34.929 28.7032 35.5 28.0002 35.5Z" fill="#757575"/>
<path fill-rule="evenodd" clip-rule="evenodd" d="M34.2264 29.2736H21.7736C21.0689 29.2736 20.5 28.7026 20.5 27.9991C20.5 27.2956 21.0689 26.7246 21.7736 26.7246H34.2264C34.9294 26.7246 35.5 27.2956 35.5 27.9991C35.5 28.7026 34.9294 29.2736 34.2264 29.2736Z" fill="#757575"/>
</svg>
