<svg width="206" height="76" viewBox="0 0 206 76" fill="none" xmlns="http://www.w3.org/2000/svg">
<rect width="206" height="76" rx="14" fill="white"/>
<ellipse cx="18.2166" cy="51.4065" rx="2.21656" ry="2.27728" fill="#007AFF"/>
<ellipse cx="18.2166" cy="57.6785" rx="2.21656" ry="2.27728" fill="#007AFF"/>
<ellipse cx="26.5299" cy="49.5667" rx="2.21656" ry="2.27728" fill="#007AFF"/>
<ellipse cx="24.8673" cy="44.3529" rx="2.21656" ry="2.27728" fill="#007AFF"/>
<ellipse cx="32.0723" cy="40.8748" rx="2.21656" ry="2.27728" fill="#007AFF"/>
<ellipse cx="47.7577" cy="48.2538" rx="2.21656" ry="2.27728" fill="#5AC8FA"/>
<ellipse cx="53.666" cy="45.8871" rx="2.21656" ry="2.27728" fill="#5AC8FA"/>
<ellipse cx="58.1209" cy="50.7268" rx="2.21656" ry="2.27728" fill="#5AC8FA"/>
<ellipse cx="64.8916" cy="54.5635" rx="2.21656" ry="2.27728" fill="#5AC8FA"/>
<ellipse cx="70.7998" cy="57.7228" rx="2.21656" ry="2.27728" fill="#5AC8FA"/>
<ellipse cx="94.6998" cy="37.399" rx="2.21656" ry="2.27728" fill="#34C759"/>
<ellipse cx="87.495" cy="48.4088" rx="2.21656" ry="2.27728" fill="#34C759"/>
<ellipse cx="88.5245" cy="38.7871" rx="2.21656" ry="2.27728" fill="#34C759"/>
<ellipse cx="140.517" cy="52.1888" rx="2.21656" ry="2.26706" fill="#AF52DE"/>
<ellipse cx="152.924" cy="53.7652" rx="2.21656" ry="2.26706" fill="#AF52DE"/>
<ellipse cx="158.832" cy="49.8302" rx="2.21656" ry="2.27728" fill="#AF52DE"/>
<ellipse cx="164.741" cy="48.2538" rx="2.21656" ry="2.27728" fill="#AF52DE"/>
<ellipse cx="170.058" cy="45.0888" rx="2.21656" ry="2.26706" fill="#AF52DE"/>
<ellipse cx="175.966" cy="56.9156" rx="2.21656" ry="2.26706" fill="#FF9500"/>
<ellipse cx="181.875" cy="53.7652" rx="2.21656" ry="2.26706" fill="#FF9500"/>
<ellipse cx="187.783" cy="18.2773" rx="2.21691" ry="2.27728" fill="#FF9500"/>
</svg>
