<svg width="131" height="24" viewBox="0 0 131 24" fill="none" xmlns="http://www.w3.org/2000/svg">
<path d="M0.386375 23L6.24238 4.152C6.88238 2.136 8.45038 1.176 10.2424 1.176C12.0664 1.176 13.6344 2.136 14.2744 4.152L20.1304 23H16.8024L15.2344 17.752L5.25038 17.784L3.68238 23H0.386375ZM9.05838 5.112L6.14638 14.808H14.3704L11.4904 5.112C11.2664 4.44 10.8824 4.12 10.2744 4.12C9.63438 4.12 9.25038 4.44 9.05838 5.112ZM30.0799 23.416C26.1759 23.416 24.0959 20.952 24.0959 17.368V10.072H20.9919V7.32H24.0959V3.256H27.2639V7.32H33.2799V10.072H27.2639V17.272C27.2639 19.32 28.4799 20.536 30.3679 20.536C31.3919 20.536 32.5119 20.152 33.2799 19.608V22.52C32.4799 23.064 31.2319 23.416 30.0799 23.416ZM41.1581 23H37.9901V0.119999H41.1581V9.08C42.3741 7.768 44.2621 6.936 46.3741 6.936C50.9821 6.936 53.5741 10.008 53.5741 14.808V23H50.4061V15.128C50.4061 12.344 48.8701 9.944 45.8941 9.944C43.1101 9.944 41.1581 12.184 41.1581 15.224V23ZM58.7401 0.119999H61.9081V23H58.7401V0.119999ZM74.3969 23.352C69.6289 23.352 66.0769 19.896 66.0769 15.064C66.0769 10.552 69.3089 6.872 74.0129 6.872C78.7489 6.872 81.6929 10.296 81.6929 14.68V15.96H69.1489C69.5009 18.648 71.5489 20.536 74.3649 20.536C76.2849 20.536 78.0129 19.704 78.9409 17.976L81.3729 19.224C79.9969 21.912 77.4689 23.352 74.3969 23.352ZM69.2769 13.912H78.5249C78.3969 11.416 76.5729 9.72 73.9809 9.72C71.3249 9.72 69.5969 11.576 69.2769 13.912ZM93.2511 9.976C90.1791 9.976 88.6431 12.504 88.6431 15.416V23H85.4751V15.096C85.4751 10.52 88.1951 6.936 93.2511 6.936C98.3711 6.936 101.155 10.52 101.155 15.064V23H97.9871V15.448C97.9871 12.504 96.3871 9.976 93.2511 9.976ZM107.902 4.216C106.75 4.216 105.822 3.288 105.822 2.136C105.822 0.983999 106.75 0.0239983 107.902 0.0239983C109.054 0.0239983 109.95 0.983999 109.95 2.136C109.95 3.288 109.054 4.216 107.902 4.216ZM106.334 7.32H109.502V23H106.334V7.32ZM117.831 23H114.247L118.215 17.048C118.695 16.344 118.919 15.736 118.919 15.16C118.919 14.616 118.727 14.072 118.279 13.4L114.247 7.32H117.831L121.031 12.088C121.351 12.568 121.607 13.112 121.735 13.656H123.431C123.591 13.112 123.815 12.568 124.135 12.088L127.303 7.32H130.919L126.887 13.4C126.439 14.072 126.247 14.616 126.247 15.16C126.247 15.736 126.471 16.344 126.951 17.048L130.919 23H127.335L124.135 18.264C123.783 17.72 123.527 17.144 123.367 16.536H121.799C121.639 17.144 121.383 17.72 121.031 18.264L117.831 23Z" fill="black"/>
</svg>
