<svg width="27" height="27" viewBox="0 0 27 27" fill="none" xmlns="http://www.w3.org/2000/svg">
<rect x="0.5" y="0.5" width="26" height="26" rx="7.5" stroke="#FD6430"/>
<path d="M7.48145 17.5215C6.83203 17.5215 6.44922 17.1934 6.44922 16.6943C6.44922 16.0107 7.13965 15.3955 7.73438 14.7871C8.18555 14.3154 8.30859 13.3447 8.36328 12.5586C8.41113 9.93359 9.1084 8.12891 10.9268 7.47266C11.1797 6.57715 11.8906 5.87305 12.8955 5.87305C13.9072 5.87305 14.6113 6.57715 14.8711 7.47266C16.6895 8.12891 17.3867 9.93359 17.4346 12.5586C17.4893 13.3447 17.6123 14.3154 18.0635 14.7871C18.6514 15.3955 19.3486 16.0107 19.3486 16.6943C19.3486 17.1934 18.959 17.5215 18.3164 17.5215H7.48145ZM12.8955 20.2627C11.7402 20.2627 10.8926 19.415 10.8037 18.458H14.9941C14.9053 19.415 14.0576 20.2627 12.8955 20.2627Z" fill="#FD6430"/>
</svg>
