<svg width="23" height="23" viewBox="0 0 23 23" fill="none" xmlns="http://www.w3.org/2000/svg">
<path d="M17.117 22.9883C15.9998 22.9883 14.8162 22.7617 13.5662 22.3086C12.3162 21.8555 11.0427 21.1953 9.74587 20.3281C8.44899 19.4609 7.17946 18.4023 5.93727 17.1523C4.67946 15.9023 3.61696 14.6289 2.74977 13.332C1.88259 12.0352 1.22243 10.7617 0.769304 9.51172C0.323992 8.25391 0.101336 7.06641 0.101336 5.94922C0.101336 5.27734 0.163836 4.67188 0.288836 4.13281C0.421648 3.59375 0.624773 3.10156 0.898211 2.65625C1.17165 2.21094 1.53102 1.79297 1.97634 1.40234C2.02321 1.35547 2.07009 1.3125 2.11696 1.27344C2.17165 1.22656 2.22243 1.17969 2.2693 1.13281C3.05837 0.429688 3.81618 0.0859375 4.54274 0.101562C4.96462 0.109375 5.37087 0.238281 5.76149 0.488281C6.15993 0.730469 6.53884 1.11328 6.89821 1.63672L9.21852 4.96484C9.5154 5.38672 9.6443 5.83203 9.60524 6.30078C9.56618 6.76172 9.43337 7.17188 9.2068 7.53125L8.15212 9.18359C7.96462 9.47266 7.94118 9.74219 8.0818 9.99219C8.27712 10.3281 8.57009 10.7383 8.96071 11.2227C9.35915 11.707 9.78102 12.1719 10.2263 12.6172C10.5232 12.9141 10.8474 13.2188 11.199 13.5312C11.5506 13.8359 11.8826 14.1133 12.1951 14.3633C12.5076 14.6055 12.7498 14.7812 12.9216 14.8906C13.0935 14.9922 13.2576 15.0469 13.4138 15.0547C13.5701 15.0547 13.7381 15.0156 13.9177 14.9375L15.7341 14.0469C16.2966 13.7734 16.7888 13.6484 17.2107 13.6719C17.6404 13.6875 18.0779 13.8477 18.5232 14.1523L21.4646 16.168C21.9881 16.5273 22.3709 16.9102 22.6131 17.3164C22.8631 17.7148 22.9881 18.125 22.9881 18.5469C22.9881 18.9062 22.9021 19.2773 22.7302 19.6602C22.5662 20.0352 22.3084 20.418 21.9568 20.8086C21.9099 20.8633 21.8631 20.9141 21.8162 20.9609C21.7771 21.0078 21.7341 21.0586 21.6873 21.1133C21.0935 21.7773 20.4373 22.2539 19.7185 22.543C19.0076 22.8398 18.1404 22.9883 17.117 22.9883ZM17.1287 21.207C17.7771 21.1914 18.3748 21.0703 18.9216 20.8438C19.4685 20.6172 19.9451 20.2734 20.3513 19.8125C20.3826 19.7734 20.4099 19.7383 20.4334 19.707C20.4646 19.6758 20.4959 19.6406 20.5271 19.6016C20.8396 19.2422 20.9959 18.8867 20.9959 18.5352C20.9959 18.3555 20.9568 18.1914 20.8787 18.043C20.8084 17.8945 20.6873 17.7656 20.5154 17.6562L17.7732 15.8164C17.5857 15.6992 17.3982 15.6289 17.2107 15.6055C17.031 15.582 16.8279 15.6211 16.6013 15.7227L14.6326 16.6602C14.0857 16.9258 13.6326 17.0391 13.2732 17C12.9138 16.9609 12.5584 16.8125 12.2068 16.5547C11.9334 16.3672 11.6052 16.1172 11.2224 15.8047C10.8396 15.4922 10.449 15.1602 10.0506 14.8086C9.65993 14.457 9.31618 14.1328 9.0193 13.8359C8.56618 13.3906 8.10134 12.875 7.62477 12.2891C7.15602 11.7031 6.75368 11.1875 6.41774 10.7422C6.15993 10.3906 6.0154 10.0469 5.98415 9.71094C5.9529 9.36719 6.06618 8.98828 6.32399 8.57422L7.49587 6.69922C7.71462 6.33203 7.73024 6.01172 7.54274 5.73828L5.43337 2.57422C5.22243 2.25391 4.92946 2.09375 4.55446 2.09375C4.3904 2.09375 4.21462 2.13281 4.02712 2.21094C3.84743 2.28906 3.66774 2.40625 3.48805 2.5625C3.4568 2.59375 3.42165 2.625 3.38259 2.65625C3.35134 2.67969 3.31618 2.70703 3.27712 2.73828C2.81618 3.14453 2.46852 3.62109 2.23415 4.16797C2.00759 4.70703 1.8904 5.29688 1.88259 5.9375C1.85915 6.9375 2.08571 8.01953 2.56227 9.18359C3.04665 10.3398 3.69899 11.5039 4.5193 12.6758C5.33962 13.8398 6.26149 14.9297 7.28493 15.9453C8.29274 16.9531 9.36696 17.8594 10.5076 18.6641C11.656 19.4609 12.7966 20.0859 13.9295 20.5391C15.0701 21 16.1365 21.2227 17.1287 21.207Z" fill="black"/>
</svg>
