<svg width="45" height="23" viewBox="0 0 45 23" fill="none" xmlns="http://www.w3.org/2000/svg">
<path d="M15.1289 22.3906C13.2148 22.3906 12.2578 21.7656 12.2578 20.5156C12.2578 19.75 12.4922 18.9336 12.9609 18.0664C13.4297 17.1992 14.1055 16.3828 14.9883 15.6172C15.8789 14.8438 16.9531 14.2148 18.2109 13.7305C19.4766 13.2461 20.9023 13.0039 22.4883 13.0039C24.082 13.0039 25.5078 13.2461 26.7656 13.7305C28.0312 14.2148 29.1055 14.8438 29.9883 15.6172C30.8789 16.3828 31.5586 17.1992 32.0273 18.0664C32.4961 18.9336 32.7305 19.75 32.7305 20.5156C32.7305 21.7656 31.7695 22.3906 29.8477 22.3906H15.1289ZM14.5664 20.6211H30.4102C30.5664 20.6211 30.6758 20.5977 30.7383 20.5508C30.8086 20.5039 30.8438 20.418 30.8438 20.293C30.8438 19.8086 30.6602 19.2539 30.293 18.6289C29.9336 18.0039 29.3984 17.3984 28.6875 16.8125C27.9766 16.2266 27.1016 15.7422 26.0625 15.3594C25.0234 14.9688 23.832 14.7734 22.4883 14.7734C21.1445 14.7734 19.9531 14.9688 18.9141 15.3594C17.8828 15.7422 17.0117 16.2266 16.3008 16.8125C15.5898 17.3984 15.0508 18.0039 14.6836 18.6289C14.3242 19.2539 14.1445 19.8086 14.1445 20.293C14.1445 20.418 14.1758 20.5039 14.2383 20.5508C14.3086 20.5977 14.418 20.6211 14.5664 20.6211ZM22.5 11.5391C21.5703 11.5391 20.7227 11.293 19.957 10.8008C19.1914 10.3086 18.5781 9.64844 18.1172 8.82031C17.6641 7.98438 17.4375 7.06641 17.4375 6.06641C17.4375 5.07422 17.6641 4.17187 18.1172 3.35938C18.5781 2.54688 19.1914 1.89844 19.957 1.41406C20.7227 0.929688 21.5703 0.6875 22.5 0.6875C23.4375 0.6875 24.2891 0.925781 25.0547 1.40234C25.8203 1.87891 26.4297 2.52344 26.8828 3.33594C27.3359 4.14063 27.5625 5.04297 27.5625 6.04297C27.5625 7.05078 27.332 7.97266 26.8711 8.80859C26.418 9.63672 25.8086 10.3008 25.043 10.8008C24.2773 11.293 23.4297 11.5391 22.5 11.5391ZM22.5 9.76953C23.0781 9.76953 23.6055 9.60547 24.082 9.27734C24.5664 8.94141 24.9531 8.49219 25.2422 7.92969C25.5312 7.35938 25.6758 6.73047 25.6758 6.04297C25.6758 5.36328 25.5312 4.75391 25.2422 4.21484C24.9609 3.66797 24.5781 3.23828 24.0938 2.92578C23.6172 2.61328 23.0859 2.45703 22.5 2.45703C21.9219 2.45703 21.3906 2.61719 20.9062 2.9375C20.4219 3.25 20.0352 3.67969 19.7461 4.22656C19.4648 4.77344 19.3242 5.38672 19.3242 6.06641C19.3242 6.75391 19.4688 7.37891 19.7578 7.94141C20.0547 8.50391 20.4414 8.94922 20.918 9.27734C21.4023 9.60547 21.9297 9.76953 22.5 9.76953ZM2.47266 22.3906C1.68359 22.3906 1.08984 22.2266 0.691406 21.8984C0.292969 21.5781 0.09375 21.0898 0.09375 20.4336C0.09375 19.4648 0.324219 18.5352 0.785156 17.6445C1.24609 16.7461 1.88281 15.9492 2.69531 15.2539C3.51562 14.5508 4.46094 13.9961 5.53125 13.5898C6.60938 13.1836 7.76172 12.9805 8.98828 12.9805C9.63672 12.9805 10.2656 13.0391 10.875 13.1562C11.4844 13.2656 12.0703 13.4336 12.6328 13.6602C13.2031 13.8789 13.7422 14.1523 14.25 14.4805C13.9844 14.668 13.7422 14.8672 13.5234 15.0781C13.3047 15.2812 13.1055 15.5 12.9258 15.7344C12.543 15.5078 12.1406 15.3203 11.7188 15.1719C11.3047 15.0234 10.8672 14.9102 10.4062 14.832C9.95312 14.7539 9.48047 14.7148 8.98828 14.7148C8.02734 14.7148 7.11719 14.8711 6.25781 15.1836C5.39844 15.4883 4.63672 15.9062 3.97266 16.4375C3.30859 16.9609 2.78516 17.5586 2.40234 18.2305C2.02734 18.9023 1.83984 19.6016 1.83984 20.3281C1.83984 20.4453 1.86719 20.5273 1.92188 20.5742C1.97656 20.6289 2.06641 20.6562 2.19141 20.6562H10.7695C10.7305 21.0156 10.8008 21.3555 10.9805 21.6758C11.1602 21.9961 11.3906 22.2344 11.6719 22.3906H2.47266ZM9 11.6445C8.19531 11.6445 7.46094 11.4297 6.79688 11C6.13281 10.5625 5.60156 9.98047 5.20312 9.25391C4.80469 8.52734 4.60547 7.72266 4.60547 6.83984C4.59766 5.97266 4.79297 5.18359 5.19141 4.47266C5.58984 3.75391 6.12109 3.18359 6.78516 2.76172C7.45703 2.33203 8.19531 2.11719 9 2.11719C9.8125 2.11719 10.5508 2.32812 11.2148 2.75C11.8789 3.17188 12.4062 3.73828 12.7969 4.44922C13.1953 5.16016 13.3945 5.94922 13.3945 6.81641C13.3945 7.69922 13.1953 8.50781 12.7969 9.24219C12.3984 9.97656 11.8672 10.5625 11.2031 11C10.5391 11.4297 9.80469 11.6445 9 11.6445ZM9 9.89844C9.47656 9.89844 9.91797 9.76172 10.3242 9.48828C10.7305 9.20703 11.0547 8.83594 11.2969 8.375C11.5391 7.90625 11.6602 7.38672 11.6602 6.81641C11.6602 6.26172 11.5391 5.76172 11.2969 5.31641C11.0625 4.87109 10.7422 4.51953 10.3359 4.26172C9.9375 3.99609 9.49219 3.86328 9 3.86328C8.51562 3.86328 8.07031 3.99609 7.66406 4.26172C7.26562 4.52734 6.94531 4.88672 6.70312 5.33984C6.46875 5.78516 6.35156 6.28516 6.35156 6.83984C6.35156 7.40234 6.47266 7.91797 6.71484 8.38672C6.95703 8.84766 7.27734 9.21484 7.67578 9.48828C8.08203 9.76172 8.52344 9.89844 9 9.89844ZM42.5273 22.3906H33.3281C33.6016 22.2344 33.8281 21.9961 34.0078 21.6758C34.1953 21.3555 34.2695 21.0156 34.2305 20.6562H42.8086C42.9336 20.6562 43.0234 20.6289 43.0781 20.5742C43.1328 20.5273 43.1602 20.4453 43.1602 20.3281C43.1602 19.6016 42.9688 18.9023 42.5859 18.2305C42.2109 17.5586 41.6914 16.9609 41.0273 16.4375C40.3633 15.9062 39.6016 15.4883 38.7422 15.1836C37.8828 14.8711 36.9727 14.7148 36.0117 14.7148C35.5195 14.7148 35.043 14.7539 34.582 14.832C34.1289 14.9102 33.6914 15.0234 33.2695 15.1719C32.8555 15.3203 32.457 15.5078 32.0742 15.7344C31.8945 15.5 31.6953 15.2812 31.4766 15.0781C31.2578 14.8672 31.0156 14.668 30.75 14.4805C31.2578 14.1523 31.793 13.8789 32.3555 13.6602C32.9258 13.4336 33.5156 13.2656 34.125 13.1562C34.7344 13.0391 35.3633 12.9805 36.0117 12.9805C37.2383 12.9805 38.3867 13.1836 39.457 13.5898C40.5352 13.9961 41.4805 14.5508 42.293 15.2539C43.1133 15.9492 43.7539 16.7461 44.2148 17.6445C44.6758 18.5352 44.9062 19.4648 44.9062 20.4336C44.9062 21.0898 44.707 21.5781 44.3086 21.8984C43.9102 22.2266 43.3164 22.3906 42.5273 22.3906ZM36 11.6445C35.1953 11.6445 34.4609 11.4297 33.7969 11C33.1328 10.5625 32.6016 9.97656 32.2031 9.24219C31.8047 8.50781 31.6055 7.69922 31.6055 6.81641C31.6055 5.94922 31.8008 5.16016 32.1914 4.44922C32.5898 3.73828 33.1211 3.17188 33.7852 2.75C34.4492 2.32812 35.1875 2.11719 36 2.11719C36.8047 2.11719 37.5391 2.33203 38.2031 2.76172C38.875 3.18359 39.4062 3.75391 39.7969 4.47266C40.1953 5.18359 40.3945 5.97266 40.3945 6.83984C40.3945 7.72266 40.1953 8.52734 39.7969 9.25391C39.3984 9.98047 38.8672 10.5625 38.2031 11C37.5391 11.4297 36.8047 11.6445 36 11.6445ZM36 9.89844C36.4766 9.89844 36.9141 9.76172 37.3125 9.48828C37.7188 9.21484 38.043 8.84766 38.2852 8.38672C38.5273 7.91797 38.6484 7.40234 38.6484 6.83984C38.6484 6.28516 38.5273 5.78516 38.2852 5.33984C38.0508 4.88672 37.7305 4.52734 37.3242 4.26172C36.9258 3.99609 36.4844 3.86328 36 3.86328C35.5078 3.86328 35.0586 3.99609 34.6523 4.26172C34.2539 4.51953 33.9336 4.87109 33.6914 5.31641C33.457 5.76172 33.3398 6.26172 33.3398 6.81641C33.3398 7.38672 33.4609 7.90625 33.7031 8.375C33.9453 8.83594 34.2695 9.20703 34.6758 9.48828C35.082 9.76172 35.5234 9.89844 36 9.89844Z" fill="black"/>
</svg>
