<svg width="23" height="27" viewBox="0 0 23 27" fill="none" xmlns="http://www.w3.org/2000/svg">
<path d="M5.21875 15.7188L0.507812 6.87109C0.398438 6.67578 0.347656 6.47266 0.355469 6.26172C0.363281 6.05078 0.425781 5.85547 0.542969 5.67578L3.73047 0.8125C3.95703 0.484375 4.28906 0.320312 4.72656 0.320312H18.2734C18.7109 0.320312 19.043 0.484375 19.2695 0.8125L22.4453 5.67578C22.5625 5.85547 22.625 6.05078 22.6328 6.26172C22.6406 6.47266 22.5898 6.67578 22.4805 6.87109L17.7695 15.7188L16.5156 14.418L20.6992 6.22656L18.8008 3.33203L13.8555 13.082L11.9336 12.7656L17.6641 2.08984H5.32422L11.0547 12.7656L9.13281 13.082L4.1875 3.33203L2.30078 6.22656L6.47266 14.418L5.21875 15.7188ZM7.15234 7.46875V5.69922H15.8477V7.46875H7.15234ZM11.5 26.9922C10.4375 26.9922 9.44141 26.793 8.51172 26.3945C7.58203 26.0039 6.76562 25.4531 6.0625 24.7422C5.35938 24.0391 4.80859 23.2227 4.41016 22.293C4.01172 21.3633 3.8125 20.3711 3.8125 19.3164C3.8125 18.2539 4.01172 17.2578 4.41016 16.3281C4.80859 15.3984 5.35938 14.582 6.0625 13.8789C6.76562 13.1758 7.58203 12.625 8.51172 12.2266C9.44141 11.8281 10.4375 11.6289 11.5 11.6289C12.5625 11.6289 13.5547 11.8281 14.4766 12.2266C15.4062 12.625 16.2227 13.1758 16.9258 13.8789C17.6367 14.582 18.1875 15.3984 18.5781 16.3281C18.9766 17.2578 19.1758 18.2539 19.1758 19.3164C19.1758 20.3711 18.9766 21.3633 18.5781 22.293C18.1875 23.2227 17.6367 24.0391 16.9258 24.7422C16.2227 25.4531 15.4062 26.0039 14.4766 26.3945C13.5547 26.793 12.5625 26.9922 11.5 26.9922ZM11.5 25.2227C12.5859 25.2227 13.5742 24.957 14.4648 24.4258C15.3633 23.8945 16.0781 23.1797 16.6094 22.2812C17.1406 21.3906 17.4062 20.4023 17.4062 19.3164C17.4062 18.2227 17.1406 17.2305 16.6094 16.3398C16.0781 15.4414 15.3633 14.7266 14.4648 14.1953C13.5742 13.6641 12.5859 13.3984 11.5 13.3984C10.4062 13.3984 9.41016 13.6641 8.51172 14.1953C7.62109 14.7266 6.91016 15.4414 6.37891 16.3398C5.84766 17.2305 5.58203 18.2227 5.58203 19.3164C5.58203 20.4023 5.84766 21.3906 6.37891 22.2812C6.91016 23.1797 7.62109 23.8945 8.51172 24.4258C9.41016 24.957 10.4062 25.2227 11.5 25.2227ZM9.4375 23.0195C9.21875 23.1758 9.02344 23.1914 8.85156 23.0664C8.6875 22.9414 8.64453 22.7578 8.72266 22.5156L9.54297 20.0664L7.45703 18.5781C7.25391 18.4375 7.17969 18.2617 7.23438 18.0508C7.28906 17.8398 7.44922 17.7344 7.71484 17.7344L10.2812 17.7578L11.0664 15.2969C11.1445 15.0547 11.2891 14.9336 11.5 14.9336C11.7109 14.9336 11.8555 15.0547 11.9336 15.2969L12.7188 17.7578L15.2852 17.7344C15.5586 17.7344 15.7188 17.8398 15.7656 18.0508C15.8203 18.2617 15.75 18.4336 15.5547 18.5664L13.457 20.0664L14.2891 22.5156C14.3672 22.7578 14.3203 22.9414 14.1484 23.0664C13.9766 23.1992 13.7812 23.1836 13.5625 23.0195L11.5117 21.5078L9.4375 23.0195Z" fill="black"/>
</svg>
