<svg width="81" height="78" viewBox="0 0 81 78" fill="none" xmlns="http://www.w3.org/2000/svg">
<path d="M41.9996 5.36881L49.9996 18.3688L39.9996 37.3689C39.5996 42.9689 44.4996 44.0356 46.9996 43.8689L61.9996 19.3689L51.9996 0.868806C43.9996 -1.93119 41.9996 2.70214 41.9996 5.36881Z" fill="#FF5116"/>
<path d="M27 43.8692L39.5 21.8692C37.5 16.2692 31.3333 16.8692 28.5 17.8692L20 37.3692C20.8 42.5692 25 43.8692 27 43.8692Z" fill="#FF5116"/>
<path d="M0.02 73L6.14 58.8H8.72L14.86 73H11.82L10.44 69.76H4.38L3.02 73H0.02ZM7.42 62.62L5.46 67.22H9.36L7.42 62.62ZM20.1639 73.12C19.0439 73.12 18.1239 72.8133 17.4039 72.2C16.6972 71.5733 16.3439 70.6733 16.3439 69.5V65.4H14.3239V63H16.3439V60.22H19.0839V63H21.9039V65.4H19.0839V68.96C19.0839 69.5733 19.2172 70.0133 19.4839 70.28C19.7506 70.5333 20.1839 70.66 20.7839 70.66C21.2106 70.66 21.5839 70.6 21.9039 70.48V72.9C21.4239 73.0467 20.8439 73.12 20.1639 73.12ZM26.5991 73H23.8591V58H26.5991V64.14C27.2124 63.2333 28.1657 62.78 29.4591 62.78C30.6591 62.78 31.5991 63.18 32.2791 63.98C32.9724 64.7667 33.3191 65.82 33.3191 67.14V73H30.5791V67.6C30.5791 66.8667 30.4257 66.3 30.1191 65.9C29.8124 65.4867 29.3791 65.28 28.8191 65.28C28.1524 65.28 27.6124 65.52 27.1991 66C26.7991 66.48 26.5991 67.1867 26.5991 68.12V73ZM35.8317 73V58H38.5717V73H35.8317ZM45.8628 73.22C44.3428 73.22 43.0761 72.74 42.0628 71.78C41.0628 70.82 40.5628 69.56 40.5628 68C40.5628 66.5067 41.0628 65.2667 42.0628 64.28C43.0628 63.28 44.3161 62.78 45.8228 62.78C47.2095 62.78 48.3761 63.2133 49.3228 64.08C50.2695 64.9333 50.7428 66.14 50.7428 67.7C50.7428 68.14 50.7295 68.4533 50.7028 68.64H43.2228C43.3028 69.2933 43.5895 69.8067 44.0828 70.18C44.5895 70.54 45.1895 70.72 45.8828 70.72C47.0561 70.72 47.9161 70.3 48.4628 69.46L50.5028 70.98C49.4761 72.4733 47.9295 73.22 45.8628 73.22ZM43.3228 66.78H48.0028C47.8828 66.2067 47.6095 65.7733 47.1828 65.48C46.7695 65.1867 46.2895 65.04 45.7428 65.04C45.1828 65.04 44.6695 65.1867 44.2028 65.48C43.7361 65.7733 43.4428 66.2067 43.3228 66.78ZM52.7653 73V63H55.5053V64.14C56.1186 63.2333 57.072 62.78 58.3653 62.78C59.5653 62.78 60.5053 63.18 61.1853 63.98C61.8786 64.7667 62.2253 65.82 62.2253 67.14V73H59.4853V67.6C59.4853 66.8667 59.332 66.3 59.0253 65.9C58.7186 65.4867 58.2853 65.28 57.7253 65.28C57.0586 65.28 56.5186 65.52 56.1053 66C55.7053 66.48 55.5053 67.1867 55.5053 68.12V73H52.7653ZM66.098 61.36C65.6313 61.36 65.2246 61.1933 64.878 60.86C64.5313 60.5133 64.358 60.1 64.358 59.62C64.358 59.14 64.5313 58.7333 64.878 58.4C65.2246 58.0533 65.6313 57.88 66.098 57.88C66.5913 57.88 67.0046 58.0533 67.338 58.4C67.6846 58.7333 67.858 59.14 67.858 59.62C67.858 60.1 67.6846 60.5133 67.338 60.86C67.0046 61.1933 66.5913 61.36 66.098 61.36ZM64.738 73V63H67.478V73H64.738ZM76.7891 73L74.4691 70.06L72.1491 73H68.8491L72.7291 68.1L68.9491 63H72.1891L74.4491 66.06L76.7091 63H79.9691L76.1891 68.1L80.0691 73H76.7891Z" fill="#FF5116"/>
</svg>
