<svg width="22" height="21" viewBox="0 0 22 21" fill="none" xmlns="http://www.w3.org/2000/svg">
<path d="M13.2599 16.868C12.4098 17.078 11.5283 17.178 10.6153 17.178C7.18373 17.178 4.10893 15.648 2.01009 13.228C0.540907 11.538 0.540907 8.92797 2.01009 7.24797C2.178 7.04797 2.3669 6.85797 2.55579 6.66797" stroke="#C2C3CB" stroke-width="1.5" stroke-linecap="round" stroke-linejoin="round"/>
<path d="M19.2201 13.2288C18.3806 14.1888 17.3836 15.0088 16.2817 15.6488L4.9375 4.82883C6.60608 3.84883 8.53701 3.29883 10.6149 3.29883C14.0465 3.29883 17.1213 4.82883 19.2201 7.24883C20.6893 8.92883 20.6893 11.5488 19.2201 13.2288Z" stroke="#C2C3CB" stroke-width="1.5" stroke-linecap="round" stroke-linejoin="round"/>
<path d="M13.8481 10.2382C13.8481 11.0882 13.4808 11.8582 12.9036 12.4182L8.32812 8.0582C8.90531 7.4982 9.72385 7.1582 10.6159 7.1582C12.4104 7.1582 13.8481 8.5282 13.8481 10.2382Z" stroke="#C2C3CB" stroke-width="1.5" stroke-linecap="round" stroke-linejoin="round"/>
<path d="M0.908203 0.988281L4.93797 4.82828L8.32759 8.05828L12.9031 12.4183L16.2927 15.6483L20.3224 19.4883" stroke="#C2C3CB" stroke-width="1.5" stroke-linecap="round" stroke-linejoin="round"/>
</svg>
