<svg width="29" height="21" viewBox="0 0 29 21" fill="none" xmlns="http://www.w3.org/2000/svg">
<path d="M3.89998 20.9609C2.68123 20.9609 1.76327 20.6562 1.14608 20.0469C0.528891 19.4375 0.220297 18.5312 0.220297 17.3281V4.39062C0.220297 3.17969 0.513266 2.27344 1.0992 1.67188C1.68514 1.0625 2.50155 0.757812 3.54842 0.757812H24.818C26.0367 0.757812 26.9547 1.0625 27.5719 1.67188C28.189 2.27344 28.4976 3.17969 28.4976 4.39062V17.3281C28.4976 18.5312 28.2047 19.4375 27.6187 20.0469C27.0328 20.6562 26.2164 20.9609 25.1695 20.9609H3.89998ZM3.82967 19.168H24.8765C25.4625 19.168 25.9117 19.0117 26.2242 18.6992C26.5445 18.3867 26.7047 17.9297 26.7047 17.3281V4.39062C26.7047 3.78906 26.5445 3.33203 26.2242 3.01953C25.9117 2.70703 25.4625 2.55078 24.8765 2.55078H3.82967C3.25155 2.55078 2.80233 2.70703 2.48202 3.01953C2.16952 3.33203 2.01327 3.78516 2.01327 4.37891V17.3164C2.01327 17.9258 2.16952 18.3867 2.48202 18.6992C2.80233 19.0117 3.25155 19.168 3.82967 19.168ZM14.3531 13.9414C13.9781 13.9414 13.6109 13.8711 13.2515 13.7305C12.8922 13.582 12.5445 13.3555 12.2086 13.0508L1.18123 3.125L2.39998 1.89453L13.2281 11.6562C13.5875 11.9766 13.9625 12.1367 14.3531 12.1367C14.7515 12.1367 15.1265 11.9766 15.4781 11.6562L26.3062 1.89453L27.525 3.125L16.4976 13.0508C16.1617 13.3555 15.814 13.582 15.4547 13.7305C15.0953 13.8711 14.7281 13.9414 14.3531 13.9414ZM2.57577 19.4609L1.35702 18.2305L9.67733 9.91016L10.8961 11.1289L2.57577 19.4609ZM26.1539 19.4727L17.8101 11.1289L19.0406 9.91016L27.3726 18.2422L26.1539 19.4727Z" fill="black"/>
</svg>
