<svg width="22" height="21" viewBox="0 0 22 21" fill="none" xmlns="http://www.w3.org/2000/svg">
<path d="M11 2.25C12.9856 2.25 14.8026 2.95694 16.2268 4.12862L14.4493 5.90611C13.4895 5.18277 12.2965 4.75 11 4.75C7.82454 4.75 5.25 7.32455 5.25 10.5C5.25 13.6755 7.82454 16.25 11 16.25C13.5045 16.25 15.6268 14.6467 16.4164 12.4169L16.6525 11.75H15.9451H11.5V9.25H18.375V9.28631H18.875H19.1593C19.2184 9.68305 19.25 10.0882 19.25 10.5C19.25 15.056 15.556 18.75 11 18.75C6.44395 18.75 2.75 15.056 2.75 10.5C2.75 5.94396 6.44395 2.25 11 2.25Z" fill="#FFC107" stroke="#FFC107"/>
<path d="M3.25977 6.42731L6.13458 8.53563C6.91245 6.60975 8.79633 5.25 11.0009 5.25C12.3392 5.25 13.5568 5.75488 14.4838 6.57956L16.9588 4.10463C15.396 2.64819 13.3056 1.75 11.0009 1.75C7.64002 1.75 4.72539 3.64744 3.25977 6.42731Z" fill="#FF3D00"/>
<path d="M11.0006 19.2498C13.2608 19.2498 15.3144 18.3849 16.8671 16.9783L14.1589 14.6867C13.2509 15.3772 12.1414 15.7507 11.0006 15.7498C8.72475 15.7498 6.79231 14.2986 6.06431 12.2734L3.21094 14.4719C4.65906 17.3056 7.59994 19.2498 11.0006 19.2498Z" fill="#4CAF50"/>
<path d="M19.5798 8.78631H18.875V8.75H11V12.25H15.9451C15.6 13.2197 14.9783 14.067 14.157 14.6873L14.1583 14.6864L16.8664 16.9781C16.6748 17.1522 19.75 14.875 19.75 10.5C19.75 9.91331 19.6896 9.34062 19.5798 8.78631Z" fill="#1976D2"/>
</svg>
