<svg width="19" height="23" viewBox="0 0 19 23" fill="none" xmlns="http://www.w3.org/2000/svg">
<path d="M15.1982 21.0155L15.1494 20.966C14.6513 21.4488 14.1568 21.6327 13.668 21.6563C13.1617 21.6807 12.6204 21.5347 12.0423 21.2821L12.0424 21.2821L12.0366 21.2797C10.6211 20.6823 9.29489 20.6568 7.8044 21.2789L7.80438 21.2789L7.79926 21.2811C6.98267 21.6327 6.4288 21.7255 5.9918 21.6649C5.56818 21.6061 5.18069 21.3928 4.71417 20.9663C1.91705 18.0774 0.749769 14.4598 1.0444 11.5654C1.19162 10.1191 1.70053 8.87391 2.52686 7.97701C3.34236 7.09188 4.49435 6.51519 6.00269 6.43312C6.71639 6.47395 7.33121 6.67012 7.90835 6.88116C7.99001 6.91102 8.07291 6.9421 8.15672 6.97353C8.63637 7.15337 9.14564 7.34432 9.62062 7.3804L9.68997 7.38566L9.75814 7.3718C10.2998 7.26163 10.8473 7.07183 11.3585 6.89464C11.5431 6.83066 11.7229 6.76832 11.8961 6.71196C12.5769 6.49031 13.2101 6.33766 13.8577 6.38353C15.3175 6.49993 16.4213 7.01372 17.2037 7.90231C13.8165 10.3632 14.6439 15.0746 17.8628 16.7402C17.2215 18.3373 16.408 19.8411 15.1523 20.9641L15.1982 21.0155ZM10.7883 5.16817C10.511 5.28515 10.2557 5.35214 10.0336 5.37652C10.1222 3.41294 11.6476 1.79074 13.5028 1.39334C13.4686 2.51894 12.9143 3.51226 12.1633 4.23962C11.7323 4.6571 11.2485 4.97404 10.7883 5.16817Z" fill="black" stroke="black"/>
</svg>
