<svg width="22" height="23" viewBox="0 0 22 23" fill="none" xmlns="http://www.w3.org/2000/svg">
<path d="M3.73551 22.3906C1.82145 22.3906 0.864418 21.7656 0.864418 20.5156C0.864418 19.75 1.09879 18.9336 1.56754 18.0664C2.03629 17.1992 2.71207 16.3828 3.59489 15.6172C4.48551 14.8438 5.55973 14.2148 6.81754 13.7305C8.08317 13.2461 9.51286 13.0039 11.1066 13.0039C12.6925 13.0039 14.1144 13.2461 15.3722 13.7305C16.6379 14.2148 17.7121 14.8438 18.5949 15.6172C19.4855 16.3828 20.1652 17.1992 20.6339 18.0664C21.1027 18.9336 21.3371 19.75 21.3371 20.5156C21.3371 21.7656 20.38 22.3906 18.466 22.3906H3.73551ZM3.18473 20.6211H19.0285C19.1769 20.6211 19.2824 20.5977 19.3449 20.5508C19.4152 20.5039 19.4504 20.418 19.4504 20.293C19.4504 19.8086 19.2668 19.2539 18.8996 18.6289C18.5402 18.0039 18.005 17.3984 17.2941 16.8125C16.5832 16.2266 15.7082 15.7422 14.6691 15.3594C13.6379 14.9688 12.4504 14.7734 11.1066 14.7734C9.76286 14.7734 8.57145 14.9688 7.53239 15.3594C6.49332 15.7422 5.61832 16.2266 4.90739 16.8125C4.19645 17.3984 3.65739 18.0039 3.2902 18.6289C2.93082 19.2539 2.75114 19.8086 2.75114 20.293C2.75114 20.418 2.78239 20.5039 2.84489 20.5508C2.9152 20.5977 3.02848 20.6211 3.18473 20.6211ZM11.1066 11.5391C10.1769 11.5391 9.32926 11.293 8.56364 10.8008C7.79801 10.3086 7.18473 9.64844 6.72379 8.82031C6.27067 7.98438 6.04411 7.06641 6.04411 6.06641C6.04411 5.07422 6.27067 4.17187 6.72379 3.35938C7.18473 2.54688 7.79801 1.89844 8.56364 1.41406C9.32926 0.929688 10.1769 0.6875 11.1066 0.6875C12.0441 0.6875 12.8957 0.925781 13.6613 1.40234C14.4269 1.87891 15.0363 2.52344 15.4894 3.33594C15.9425 4.14063 16.1691 5.04297 16.1691 6.04297C16.1691 7.05078 15.9386 7.97266 15.4777 8.80859C15.0246 9.63672 14.4152 10.3008 13.6496 10.8008C12.8839 11.293 12.0363 11.5391 11.1066 11.5391ZM11.1066 9.76953C11.6847 9.76953 12.2121 9.60547 12.6886 9.27734C13.173 8.94141 13.5597 8.49219 13.8488 7.92969C14.1379 7.35938 14.2824 6.73047 14.2824 6.04297C14.2824 5.36328 14.1379 4.75391 13.8488 4.21484C13.5675 3.66797 13.1847 3.23828 12.7004 2.92578C12.2238 2.61328 11.6925 2.45703 11.1066 2.45703C10.5285 2.45703 9.99723 2.61719 9.51286 2.9375C9.03629 3.25 8.65348 3.67969 8.36442 4.22656C8.07536 4.77344 7.93082 5.38672 7.93082 6.06641C7.93082 6.75391 8.07536 7.37891 8.36442 7.94141C8.66129 8.50391 9.04801 8.94922 9.52457 9.27734C10.0089 9.60547 10.5363 9.76953 11.1066 9.76953Z" fill="black"/>
</svg>
